[2024-12-22 21:08:02] ffmpeg version 2024-06-24-git-6ec22731ae-full_build-www.gyan.dev Copyright (c) 2000-2024 the FFmpeg developers
[2024-12-22 21:08:02] built with gcc 13.2.0 (Rev5, Built by MSYS2 project)
[2024-12-22 21:08:02] configuration: --enable-gpl --enable-version3 --enable-static --disable-w32threads --disable-autodetect --enable-fontconfig --enable-iconv --enable-gnutls --enable-libxml2 --enable-gmp --enable-bzlib --enable-lzma --enable-libsnappy --enable-zlib --enable-librist --enable-libsrt --enable-libssh --enable-libzmq --enable-avisynth --enable-libbluray --enable-libcaca --enable-sdl2 --enable-libaribb24 --enable-libaribcaption --enable-libdav1d --enable-libdavs2 --enable-libopenjpeg --enable-libquirc --enable-libuavs3d --enable-libxevd --enable-libzvbi --enable-libqrencode --enable-librav1e --enable-libsvtav1 --enable-libwebp --enable-libx264 --enable-libx265 --enable-libxavs2 --enable-libxeve --enable-libxvid --enable-libaom --enable-libjxl --enable-libvpx --enable-mediafoundation --enable-libass --enable-frei0r --enable-libfreetype --enable-libfribidi --enable-libharfbuzz --enable-liblensfun --enable-libvidstab --enable-libvmaf --enable-libzimg --enable-amf --enable-cuda-llvm --enable-cuvid --enable-dxva2 --enable-d3d11va --enable-d3d12va --enable-ffnvcodec --enable-libvpl --enable-nvdec --enable-nvenc --enable-vaapi --enable-libshaderc --enable-vulkan --enable-libplacebo --enable-opencl --enable-libcdio --enable-libgme --enable-libmodplug --enable-libopenmpt --enable-libopencore-amrwb --enable-libmp3lame --enable-libshine --enable-libtheora --enable-libtwolame --enable-libvo-amrwbenc --enable-libcodec2 --enable-libilbc --enable-libgsm --enable-libopencore-amrnb --enable-libopus --enable-libspeex --enable-libvorbis --enable-ladspa --enable-libbs2b --enable-libflite --enable-libmysofa --enable-librubberband --enable-libsoxr --enable-chromaprint
[2024-12-22 21:08:02] libavutil      59. 25.100 / 59. 25.100
[2024-12-22 21:08:02] libavcodec     61.  8.100 / 61.  8.100
[2024-12-22 21:08:02] libavformat    61.  4.100 / 61.  4.100
[2024-12-22 21:08:02] libavdevice    61.  2.100 / 61.  2.100
[2024-12-22 21:08:02] libavfilter    10.  2.102 / 10.  2.102
[2024-12-22 21:08:02] libswscale      8.  2.100 /  8.  2.100
[2024-12-22 21:08:02] libswresample   5.  2.100 /  5.  2.100
[2024-12-22 21:08:02] libpostproc    58.  2.100 / 58.  2.100
[2024-12-22 21:08:02] Input #0, mov,mp4,m4a,3gp,3g2,mj2, from 'C:\computer\3\itproject\manyaitools_modules\TANGO\outputs/tmpvideo\save_video_fps.mp4':
[2024-12-22 21:08:02] Metadata:
[2024-12-22 21:08:02] major_brand     : isom
[2024-12-22 21:08:02] minor_version   : 512
[2024-12-22 21:08:02] compatible_brands: isomiso2mp41
[2024-12-22 21:08:02] encoder         : Lavf58.76.100
[2024-12-22 21:08:02] Duration: 00:00:10.00, start: 0.000000, bitrate: 4877 kb/s
[2024-12-22 21:08:02] Stream #0:0[0x1](und): Video: mpeg4 (Simple Profile) (mp4v / 0x7634706D), yuv420p, 720x1280 [SAR 1:1 DAR 9:16], 4875 kb/s, 30 fps, 30 tbr, 15360 tbn (default)
[2024-12-22 21:08:02] Metadata:
[2024-12-22 21:08:02] handler_name    : VideoHandler
[2024-12-22 21:08:02] vendor_id       : [0][0][0][0]
[2024-12-22 21:08:02] Stream mapping:
[2024-12-22 21:08:02] Stream #0:0 -> #0:0 (mpeg4 (native) -> h264 (libx264))
[2024-12-22 21:08:02] Press [q] to stop, [?] for help
[2024-12-22 21:08:02] [libx264 @ 00000201546ed2c0] using SAR=1/1
[2024-12-22 21:08:02] [libx264 @ 00000201546ed2c0] using cpu capabilities: MMX2 SSE2Fast SSSE3 SSE4.2 AVX FMA3 BMI2 AVX2
[2024-12-22 21:08:02] [libx264 @ 00000201546ed2c0] profile High, level 3.1, 4:2:0, 8-bit
[2024-12-22 21:08:02] [libx264 @ 00000201546ed2c0] 264 - core 164 r3191 4613ac3 - H.264/MPEG-4 AVC codec - Copyleft 2003-2024 - http://www.videolan.org/x264.html - options: cabac=1 ref=3 deblock=1:0:0 analyse=0x3:0x113 me=hex subme=7 psy=1 psy_rd=1.00:0.00 mixed_ref=1 me_range=16 chroma_me=1 trellis=1 8x8dct=1 cqm=0 deadzone=21,11 fast_pskip=1 chroma_qp_offset=-2 threads=24 lookahead_threads=4 sliced_threads=0 nr=0 decimate=1 interlaced=0 bluray_compat=0 constrained_intra=0 bframes=3 b_pyramid=2 b_adapt=1 b_bias=0 direct=1 weightb=1 open_gop=0 weightp=2 keyint=250 keyint_min=25 scenecut=40 intra_refresh=0 rc_lookahead=40 rc=crf mbtree=1 crf=23.0 qcomp=0.60 qpmin=0 qpmax=69 qpstep=4 ip_ratio=1.40 aq=1:1.00
[2024-12-22 21:08:02] Output #0, mp4, to 'C:\computer\3\itproject\manyaitools_modules\TANGO\outputs/tmpvideo\save_video.mp4':
[2024-12-22 21:08:02] Metadata:
[2024-12-22 21:08:02] major_brand     : isom
[2024-12-22 21:08:02] minor_version   : 512
[2024-12-22 21:08:02] compatible_brands: isomiso2mp41
[2024-12-22 21:08:02] encoder         : Lavf61.4.100
[2024-12-22 21:08:02] Stream #0:0(und): Video: h264 (avc1 / 0x31637661), yuv420p(progressive), 720x1280 [SAR 1:1 DAR 9:16], q=2-31, 30 fps, 15360 tbn (default)
[2024-12-22 21:08:02] Metadata:
[2024-12-22 21:08:02] handler_name    : VideoHandler
[2024-12-22 21:08:02] vendor_id       : [0][0][0][0]
[2024-12-22 21:08:02] encoder         : Lavc61.8.100 libx264
[2024-12-22 21:08:02] Side data:
[2024-12-22 21:08:02] cpb: bitrate max/min/avg: 0/0/0 buffer size: 0 vbv_delay: N/A
[2024-12-22 21:08:03] frame=    0 fps=0.0 q=0.0 size=       0KiB time=N/A bitrate=N/A speed=N/A
[2024-12-22 21:08:04] frame=    0 fps=0.0 q=0.0 size=       0KiB time=N/A bitrate=N/A speed=N/A
[2024-12-22 21:08:04] frame=    0 fps=0.0 q=0.0 size=       0KiB time=N/A bitrate=N/A speed=N/A
[2024-12-22 21:08:05] frame=    0 fps=0.0 q=0.0 size=       0KiB time=N/A bitrate=N/A speed=N/A
[2024-12-22 21:08:05] frame=    0 fps=0.0 q=0.0 size=       0KiB time=N/A bitrate=N/A speed=N/A
[2024-12-22 21:08:06] frame=    0 fps=0.0 q=0.0 size=       0KiB time=N/A bitrate=N/A speed=N/A
[2024-12-22 21:08:06] frame=    0 fps=0.0 q=0.0 size=       0KiB time=N/A bitrate=N/A speed=N/A
[2024-12-22 21:08:07] frame=    0 fps=0.0 q=0.0 size=       0KiB time=N/A bitrate=N/A speed=N/A
[2024-12-22 21:08:07] frame=    0 fps=0.0 q=0.0 size=       0KiB time=N/A bitrate=N/A speed=N/A
[2024-12-22 21:08:08] frame=    0 fps=0.0 q=0.0 size=       0KiB time=N/A bitrate=N/A speed=N/A
[2024-12-22 21:08:08] frame=    2 fps=0.3 q=29.0 size=       0KiB time=00:00:00.00 bitrate=N/A speed=   0x
[2024-12-22 21:08:09] frame=   10 fps=1.6 q=29.0 size=       0KiB time=00:00:00.26 bitrate=   1.4kbits/s speed=0.0423x
[2024-12-22 21:08:09] frame=   17 fps=2.5 q=29.0 size=       0KiB time=00:00:00.50 bitrate=   0.8kbits/s speed=0.0734x
[2024-12-22 21:08:10] frame=   25 fps=3.4 q=29.0 size=     256KiB time=00:00:00.76 bitrate=2735.9kbits/s speed=0.104x
[2024-12-22 21:08:10] frame=   32 fps=4.1 q=29.0 size=     256KiB time=00:00:01.00 bitrate=2097.5kbits/s speed=0.127x
[2024-12-22 21:08:11] frame=   39 fps=4.7 q=29.0 size=     256KiB time=00:00:01.23 bitrate=1700.7kbits/s speed=0.147x
[2024-12-22 21:08:11] frame=   46 fps=5.2 q=29.0 size=     256KiB time=00:00:01.46 bitrate=1430.1kbits/s speed=0.165x
[2024-12-22 21:08:12] frame=   53 fps=5.6 q=29.0 size=     512KiB time=00:00:01.70 bitrate=2467.5kbits/s speed=0.181x
[2024-12-22 21:08:12] frame=   61 fps=6.1 q=29.0 size=     512KiB time=00:00:01.96 bitrate=2132.9kbits/s speed=0.198x
[2024-12-22 21:08:13] frame=   68 fps=6.5 q=29.0 size=     512KiB time=00:00:02.20 bitrate=1906.7kbits/s speed=0.211x
[2024-12-22 21:08:13] frame=   75 fps=6.9 q=29.0 size=     768KiB time=00:00:02.43 bitrate=2585.7kbits/s speed=0.222x
[2024-12-22 21:08:14] frame=   83 fps=7.2 q=29.0 size=     768KiB time=00:00:02.70 bitrate=2330.3kbits/s speed=0.236x
[2024-12-22 21:08:14] frame=   91 fps=7.6 q=29.0 size=     768KiB time=00:00:02.96 bitrate=2120.8kbits/s speed=0.248x
[2024-12-22 21:08:15] frame=   98 fps=7.8 q=29.0 size=    1024KiB time=00:00:03.20 bitrate=2621.6kbits/s speed=0.256x
[2024-12-22 21:08:16] frame=  104 fps=8.0 q=29.0 size=    1024KiB time=00:00:03.40 bitrate=2467.4kbits/s speed=0.261x
[2024-12-22 21:08:16] frame=  111 fps=8.2 q=29.0 size=    1024KiB time=00:00:03.63 bitrate=2308.9kbits/s speed=0.269x
[2024-12-22 21:08:17] frame=  119 fps=8.5 q=29.0 size=    1280KiB time=00:00:03.90 bitrate=2688.8kbits/s speed=0.278x
[2024-12-22 21:08:17] frame=  127 fps=8.7 q=29.0 size=    1280KiB time=00:00:04.16 bitrate=2516.7kbits/s speed=0.286x
[2024-12-22 21:08:18] frame=  136 fps=9.0 q=29.0 size=    1280KiB time=00:00:04.46 bitrate=2347.6kbits/s speed=0.296x
[2024-12-22 21:08:18] frame=  143 fps=9.2 q=29.0 size=    1536KiB time=00:00:04.70 bitrate=2677.3kbits/s speed=0.302x
[2024-12-22 21:08:19] frame=  151 fps=9.4 q=29.0 size=    1536KiB time=00:00:04.96 bitrate=2533.5kbits/s speed=0.308x
[2024-12-22 21:08:19] frame=  159 fps=9.6 q=29.0 size=    1536KiB time=00:00:05.23 bitrate=2404.5kbits/s speed=0.315x
[2024-12-22 21:08:20] frame=  168 fps=9.8 q=29.0 size=    1792KiB time=00:00:05.53 bitrate=2653.1kbits/s speed=0.323x
[2024-12-22 21:08:20] frame=  177 fps= 10 q=29.0 size=    1792KiB time=00:00:05.83 bitrate=2516.6kbits/s speed=0.331x
[2024-12-22 21:08:21] frame=  185 fps= 10 q=29.0 size=    1792KiB time=00:00:06.10 bitrate=2406.6kbits/s speed=0.336x
[2024-12-22 21:08:21] frame=  193 fps= 10 q=29.0 size=    2048KiB time=00:00:06.36 bitrate=2635.2kbits/s speed=0.341x
[2024-12-22 21:08:22] frame=  203 fps= 11 q=29.0 size=    2048KiB time=00:00:06.70 bitrate=2504.1kbits/s speed=0.349x
[2024-12-22 21:08:22] frame=  212 fps= 11 q=29.0 size=    2048KiB time=00:00:07.00 bitrate=2396.8kbits/s speed=0.355x
[2024-12-22 21:08:23] frame=  220 fps= 11 q=29.0 size=    2304KiB time=00:00:07.26 bitrate=2597.4kbits/s speed=0.359x
[2024-12-22 21:08:23] frame=  228 fps= 11 q=26.0 size=    2304KiB time=00:00:07.53 bitrate=2505.5kbits/s speed=0.363x
[2024-12-22 21:08:23] [out#0/mp4 @ 00000201546e9580] video:2965KiB audio:0KiB subtitle:0KiB other streams:0KiB global headers:0KiB muxing overhead: 0.129110%
[2024-12-22 21:08:23] frame=  299 fps= 14 q=-1.0 Lsize=    2969KiB time=00:00:09.90 bitrate=2456.6kbits/s speed=0.469x
[2024-12-22 21:08:23] [libx264 @ 00000201546ed2c0] frame I:2     Avg QP:21.41  size: 48036
[2024-12-22 21:08:23] [libx264 @ 00000201546ed2c0] frame P:209   Avg QP:23.48  size: 13025
[2024-12-22 21:08:23] [libx264 @ 00000201546ed2c0] frame B:88    Avg QP:24.80  size:  2469
[2024-12-22 21:08:23] [libx264 @ 00000201546ed2c0] consecutive B-frames: 45.5% 44.8%  3.0%  6.7%
[2024-12-22 21:08:23] [libx264 @ 00000201546ed2c0] mb I  I16..4: 19.4% 75.3%  5.3%
[2024-12-22 21:08:23] [libx264 @ 00000201546ed2c0] mb P  I16..4:  3.4% 11.5%  0.2%  P16..4: 50.4%  9.4%  3.5%  0.0%  0.0%    skip:21.6%
[2024-12-22 21:08:23] [libx264 @ 00000201546ed2c0] mb B  I16..4:  0.6%  1.6%  0.0%  B16..8: 30.2%  1.2%  0.1%  direct: 0.7%  skip:65.6%  L0:39.6% L1:57.2% BI: 3.2%
[2024-12-22 21:08:23] [libx264 @ 00000201546ed2c0] 8x8 transform intra:76.2% inter:85.5%
[2024-12-22 21:08:23] [libx264 @ 00000201546ed2c0] coded y,uvDC,uvAC intra: 43.4% 70.5% 12.9% inter: 14.2% 21.4% 0.3%
[2024-12-22 21:08:23] [libx264 @ 00000201546ed2c0] i16 v,h,dc,p: 36% 17% 21% 26%
[2024-12-22 21:08:23] [libx264 @ 00000201546ed2c0] i8 v,h,dc,ddl,ddr,vr,hd,vl,hu: 30% 18% 33%  3%  3%  4%  3%  4%  2%
[2024-12-22 21:08:23] [libx264 @ 00000201546ed2c0] i4 v,h,dc,ddl,ddr,vr,hd,vl,hu: 29% 16% 10%  5% 11% 11%  8%  7%  4%
[2024-12-22 21:08:23] [libx264 @ 00000201546ed2c0] i8c dc,h,v,p: 43% 19% 30%  8%
[2024-12-22 21:08:23] [libx264 @ 00000201546ed2c0] Weighted P-Frames: Y:0.0% UV:0.0%
[2024-12-22 21:08:23] [libx264 @ 00000201546ed2c0] ref P L0: 76.1% 13.5%  8.1%  2.3%
[2024-12-22 21:08:23] [libx264 @ 00000201546ed2c0] ref B L0: 87.1% 12.2%  0.7%
[2024-12-22 21:08:23] [libx264 @ 00000201546ed2c0] ref B L1: 98.6%  1.4%
[2024-12-22 21:08:23] [libx264 @ 00000201546ed2c0] kb/s:2436.50
[2024-12-22 21:08:31] C:\ProgramData\miniconda3\envs\tango\lib\site-packages\timm\models\layers\__init__.py:48: FutureWarning: Importing from timm.models.layers is deprecated, please import via timm.layers
[2024-12-22 21:08:31] warnings.warn(f"Importing from {__name__} is deprecated, please import via timm.layers", FutureWarning)
[2024-12-22 21:08:31] [92m12-22 21:08:31[0m Load checkpoint from C:\computer\3\itproject\manyaitools_modules\TANGO\SMPLer-X\main\../pretrained_models\smpler_x_s32.pth.tar
[2024-12-22 21:08:31] [92m12-22 21:08:31[0m Creating graph...
